<?xml version="1.0" encoding="UTF-8"?>
<svg xmlns="http://www.w3.org/2000/svg" viewBox="0 0 64 64" width="64" height="64" role="img" aria-label="Block orange H favicon">
  <title>Block orange H favicon</title>
  <path fill="#0D2240" d="M5 4h21v7h-5v16h22V11h-5V4h21v7h-5v42h5v7H38v-7h5V37H21v16h5v7H5v-7h5V11H5z"/>
  <path fill="#FFFFFF" d="M9 8h13v3h-5v20h30V11h-5V8h13v3h-5v46h5v3H42v-3h5V33H17v24h5v3H9v-3h5V11H9z"/>
  <path fill="#F76900" d="M12 11h7v3h-4v40h4v3h-7v-3h4V14h-4z"/>
  <path fill="#F76900" d="M45 11h7v3h-4v40h4v3h-7v-3h4V14h-4z"/>
  <path fill="#F76900" d="M18 14h5v20h18V14h5v40h-5V34H23v20h-5z"/>
</svg>
